<svg width="114" height="148" viewBox="0 0 114 148" fill="none" xmlns="http://www.w3.org/2000/svg">
<mask id="mask0_0:312" style="mask-type:alpha" maskUnits="userSpaceOnUse" x="0" y="0" width="114" height="92">
<path fill-rule="evenodd" clip-rule="evenodd" d="M0 0.803711H113.33V91.9818H0V0.803711Z" fill="white"/>
</mask>
<g mask="url(#mask0_0:312)">
<path fill-rule="evenodd" clip-rule="evenodd" d="M55.8577 91.9821C67.2442 91.9821 87.0335 87.6445 96.2508 83.3068C105.468 78.9691 113.33 73.0057 113.33 67.0414C113.33 61.0772 105.197 59.7216 105.468 57.0105C105.739 54.3001 110.619 52.9446 110.348 46.7094C110.077 40.4742 98.1483 43.4563 97.3355 39.9323C96.5218 36.4075 103.842 32.3415 102.486 25.2927C101.13 18.2447 85.1361 23.6662 81.3403 18.7866C77.5453 13.907 83.7805 6.04526 79.1718 2.79219C74.5632 -0.46168 64.2621 0.351989 57.2132 4.68968C50.1644 9.02737 46.9121 15.5335 40.9479 16.6181C34.9837 17.7019 27.3929 10.3829 21.4287 14.1779C15.4645 17.9729 16.5491 25.2927 16.8201 29.3594C17.091 33.4254 18.9893 39.9323 16.5491 43.4563C14.1089 46.9803 11.1453 48.6069 7.62129 50.2334C4.09727 51.8599 -0.258914 56.1976 0.0120406 62.1618C0.282995 68.1261 6.24722 76.5297 22.7843 83.3068C39.3214 90.0847 46.6404 91.9821 55.8577 91.9821Z" fill="#0297B8"/>
</g>
<mask id="mask1_0:312" style="mask-type:alpha" maskUnits="userSpaceOnUse" x="0" y="55" width="98" height="37">
<path fill-rule="evenodd" clip-rule="evenodd" d="M0 55.8608H97.6366V91.9826H0V55.8608Z" fill="white"/>
</mask>
<g mask="url(#mask1_0:312)">
<path fill-rule="evenodd" clip-rule="evenodd" d="M85.968 67.3128C78.9191 64.6016 77.5636 59.722 63.1957 61.0776C48.8279 62.4332 30.3933 63.7888 30.3933 63.7888C30.1827 63.5291 29.972 63.2871 29.7614 63.0539C30.1585 60.4344 29.5467 58.1108 27.8598 56.83C24.8215 54.5241 19.4586 56.4738 15.8824 61.1854C14.3595 63.1914 13.4116 65.3735 13.0538 67.3972C9.35371 67.3602 1.47271 66.159 1.12939 56.6989C0.36879 58.3062 -0.0798532 60.1377 0.0118051 62.1614C0.283564 68.1257 6.24779 76.5301 22.7841 83.3072C39.3212 90.0843 46.6401 91.9826 55.8574 91.9826C67.244 91.9826 87.0333 87.6449 96.2514 83.3072C96.7169 83.0877 97.1784 82.8634 97.6367 82.6358C95.8116 82.4646 94.0186 81.872 92.4741 80.596C86.2389 75.4455 93.0168 70.024 85.968 67.3128Z" fill="#00547A"/>
</g>
<path fill-rule="evenodd" clip-rule="evenodd" d="M22.8797 49.1847C26.4929 44.0341 25.8151 39.8074 22.4109 35.5943C18.7189 31.0251 16.5247 23.3531 20.3607 14.9575C15.6041 18.9077 16.5665 25.5553 16.8198 29.3591C17.0915 33.4251 18.989 39.932 16.5488 43.456C14.1094 46.98 11.1458 48.6066 7.62177 50.2331C7.24147 50.4084 6.85152 50.6214 6.45996 50.8586C11.3098 54.6094 20.0688 53.1911 22.8797 49.1847Z" fill="#00547A"/>
<path fill-rule="evenodd" clip-rule="evenodd" d="M75.2378 23.6763C77.2141 22.9881 80.9392 21.7531 85.0356 20.691C83.4413 20.3622 82.1267 19.7969 81.3404 18.7863C78.4346 15.05 81.4039 9.5682 80.8893 5.74268C75.8384 8.81644 71.795 12.5768 71.3102 17.4307C71.0618 19.9111 71.5514 21.5401 72.1552 22.5781C72.7727 23.6394 74.0784 24.08 75.2378 23.6763Z" fill="#00547A"/>
<path fill-rule="evenodd" clip-rule="evenodd" d="M90.3135 42.8903C92.7224 42.1579 95.8476 41.4704 99.1401 41.4447C98.1841 41.1327 97.5079 40.6793 97.3351 39.9315C96.7964 37.595 99.8307 35.019 101.542 31.4941C99.928 32.1961 98.2388 32.6905 96.2705 33.2147C92.7312 34.1579 89.3045 35.9967 87.3306 38.6258C85.7347 40.7516 87.7704 43.663 90.3135 42.8903Z" fill="#00547A"/>
<path fill-rule="evenodd" clip-rule="evenodd" d="M105.468 57.0109C105.735 54.3271 110.514 52.9643 110.347 46.8867C108.761 46.9221 106.273 47.5645 104.55 50.8393C102.116 55.4656 97.2756 58.9985 92.1901 58.8843C91.2382 58.8634 90.5009 59.7414 90.7236 60.6668C91.2655 62.9157 92.8912 66.2917 97.7732 66.2917C102.515 66.2917 105.551 62.992 108.131 60.0051C106.604 58.9687 105.359 58.0988 105.468 57.0109Z" fill="#00547A"/>
<path fill-rule="evenodd" clip-rule="evenodd" d="M55.6951 83.8594C48.6052 83.8594 42.7536 89.3798 42.3113 96.456C41.8442 103.937 41.0193 112.569 39.6155 115.756C38.0058 119.412 32.1292 120.768 27.7087 121.27C24.7644 121.603 22.8605 124.536 23.7763 127.355C26.1867 134.778 33.037 146.691 52.1815 146.691C69.8699 146.691 79.3003 140.199 83.8205 135.475C85.8667 133.336 85.4165 129.873 82.9119 128.294C77.5676 124.927 69.3248 117.731 69.2042 105.338C69.1737 102.175 69.1479 99.4638 69.1278 97.1426C69.0611 89.7858 63.0776 83.8594 55.7192 83.8594H55.6951Z" fill="#F7D4AD"/>
<path fill-rule="evenodd" clip-rule="evenodd" d="M67.7694 91.4156C65.5937 86.9436 61.0196 83.8594 55.7187 83.8594H55.6938C55.5065 83.8594 55.3239 83.8787 55.1382 83.8867C53.699 84.1593 52.1923 84.4825 50.6293 84.8531C45.9949 86.7474 42.6405 91.1663 42.3101 96.456C41.8429 103.937 41.0188 112.57 39.6142 115.756C38.0045 119.412 32.1288 120.768 27.7083 121.27C24.7631 121.603 22.86 124.536 23.775 127.355C23.9077 127.764 24.0564 128.187 24.2164 128.619C31.7517 127.169 39.3521 124.371 46.7442 119.677C60.1545 111.161 65.5881 99.0747 67.7694 91.4156Z" fill="#E99462"/>
<path fill-rule="evenodd" clip-rule="evenodd" d="M60.7483 33.4695C73.8667 33.3047 84.4403 44.9019 84.2321 59.2263L84.2176 60.163C84.3358 60.9043 83.5712 78.2735 79.3734 84.9614C73.8602 93.7453 70.1191 100.196 59.0558 104.67C57.9559 105.114 56.7161 105.116 55.6106 104.685C44.6791 100.43 40.1018 94.817 35.3871 85.5137C31.8574 78.5525 30.4375 61.5813 30.5557 60.8375L30.5428 59.9009C30.3426 45.5813 40.9227 33.7188 54.0411 33.5539L60.7483 33.4695Z" fill="#F7D4AD"/>
<path fill-rule="evenodd" clip-rule="evenodd" d="M39.3629 61.2256C42.9617 49.0535 42.2196 41.6284 41.2283 37.8696C34.6972 42.6013 30.415 50.746 30.5428 59.9006L30.5565 60.8373C30.4375 61.5818 31.8582 78.5522 35.387 85.5143C39.8863 94.3914 44.2739 99.9062 54.1649 104.09C54.1754 104.084 54.1955 104.073 54.1955 104.073C42.5372 93.9951 35.5961 73.9661 39.3629 61.2256Z" fill="#E99462"/>
<path fill-rule="evenodd" clip-rule="evenodd" d="M33.1332 68.9276C33.9083 73.5098 33.1775 76.7427 30.3819 77.5508C27.1248 78.4923 24.4683 74.2374 23.7029 70.6611C22.3103 64.151 24.8896 60.2185 27.5557 60.4854C32.5785 60.9879 32.5238 65.3216 33.1332 68.9276Z" fill="#F7D4AD"/>
<path fill-rule="evenodd" clip-rule="evenodd" d="M81.6417 68.9276C80.8667 73.5098 81.5983 76.7427 84.3931 77.5508C87.6502 78.4923 90.3067 74.2374 91.0721 70.6611C92.4647 64.151 89.8854 60.2185 87.2192 60.4854C82.1965 60.9879 82.252 65.3216 81.6417 68.9276Z" fill="#F7D4AD"/>
<path fill-rule="evenodd" clip-rule="evenodd" d="M33.1332 68.9276C32.523 65.3216 32.5785 60.9879 27.5557 60.4854C24.8896 60.2185 22.3103 64.151 23.7029 70.6611C23.7777 71.0084 23.8749 71.363 23.9843 71.7184C24.0703 71.5512 24.1411 71.2899 24.1893 70.9071C24.7288 66.6249 25.9686 64.7041 27.0605 64.6647C30.3135 64.5473 32.7803 70.3379 29.7354 75.4941C29.3206 76.1968 29.3133 77.0563 29.6317 77.669C29.8786 77.6561 30.1278 77.6239 30.3819 77.5508C33.1775 76.7427 33.9083 73.5098 33.1332 68.9276Z" fill="#E99462"/>
<path fill-rule="evenodd" clip-rule="evenodd" d="M81.6855 68.6519C82.5595 68.8143 83.3169 68.4654 83.5581 67.4121C84.1788 64.6961 84.8389 62.3741 85.7989 60.7773C82.3135 61.874 82.1897 65.4889 81.6855 68.6519Z" fill="#E99462"/>
<path fill-rule="evenodd" clip-rule="evenodd" d="M86.7044 75.3155C86.7044 76.1026 86.066 76.741 85.2789 76.741C84.4909 76.741 83.8525 76.1026 83.8525 75.3155C83.8525 74.5284 84.4909 73.8892 85.2789 73.8892C86.066 73.8892 86.7044 74.5284 86.7044 75.3155Z" fill="#E99462"/>
<path fill-rule="evenodd" clip-rule="evenodd" d="M30.2942 75.3155C30.2942 76.1026 29.6559 76.741 28.8687 76.741C28.0808 76.741 27.4424 76.1026 27.4424 75.3155C27.4424 74.5284 28.0808 73.8892 28.8687 73.8892C29.6559 73.8892 30.2942 74.5284 30.2942 75.3155Z" fill="#E99462"/>
<path fill-rule="evenodd" clip-rule="evenodd" d="M87.0189 75.0183C87.0189 75.8054 86.3805 76.4438 85.5933 76.4438C84.8054 76.4438 84.167 75.8054 84.167 75.0183C84.167 74.2312 84.8054 73.5928 85.5933 73.5928C86.3805 73.5928 87.0189 74.2312 87.0189 75.0183Z" fill="#0297B8"/>
<path fill-rule="evenodd" clip-rule="evenodd" d="M30.6087 75.0183C30.6087 75.8054 29.9703 76.4438 29.1824 76.4438C28.3952 76.4438 27.7568 75.8054 27.7568 75.0183C27.7568 74.2312 28.3952 73.5928 29.1824 73.5928C29.9703 73.5928 30.6087 74.2312 30.6087 75.0183Z" fill="#0297B8"/>
<path fill-rule="evenodd" clip-rule="evenodd" d="M41.7541 62.6056C41.7059 63.1556 42.2165 63.5849 42.7479 63.4386C44.4468 62.9707 47.773 62.1441 50.2076 62.1015L52.3576 62.0637C52.8488 62.0549 53.1029 61.4728 52.7748 61.1061L51.2528 59.4064C51.1017 59.2384 50.8661 59.1741 50.6498 59.2432L42.3009 61.9206C41.9978 62.0187 41.7823 62.2881 41.7541 62.6056Z" fill="#00547A"/>
<path fill-rule="evenodd" clip-rule="evenodd" d="M73.0208 62.6056C73.069 63.1556 72.5585 63.5849 72.027 63.4386C70.3289 62.9707 67.0019 62.1441 64.5673 62.1015L62.4174 62.0637C61.9261 62.0549 61.672 61.4728 62.0001 61.1061L63.5221 59.4064C63.6732 59.2384 63.9088 59.1741 64.1251 59.2432L72.474 61.9206C72.778 62.0187 72.9926 62.2881 73.0208 62.6056Z" fill="#00547A"/>
<path fill-rule="evenodd" clip-rule="evenodd" d="M47.9849 71.6508C47.1447 71.6508 46.4629 70.9689 46.4629 70.1287V67.4771C46.4629 66.6369 47.1447 65.9551 47.9849 65.9551C48.8251 65.9551 49.5069 66.6369 49.5069 67.4771V70.1287C49.5069 70.9689 48.8251 71.6508 47.9849 71.6508Z" fill="#00547A"/>
<path fill-rule="evenodd" clip-rule="evenodd" d="M66.7896 71.6508C67.6298 71.6508 68.3116 70.9689 68.3116 70.1287V67.4771C68.3116 66.6369 67.6298 65.9551 66.7896 65.9551C65.9494 65.9551 65.2676 66.6369 65.2676 67.4771V70.1287C65.2676 70.9689 65.9494 71.6508 66.7896 71.6508Z" fill="#00547A"/>
<path fill-rule="evenodd" clip-rule="evenodd" d="M57.3978 69.5097C57.2498 70.6715 57.0882 71.8309 56.8848 72.9806C56.6814 74.1312 56.5021 75.2858 56.2714 76.4299L55.9313 78.1481L55.7688 78.9497C55.76 79.0309 55.7801 79.1089 55.834 79.174C55.8822 79.2415 55.9506 79.2866 56.0318 79.3018L56.8285 79.3621C57.4107 79.4104 57.9928 79.4771 58.5741 79.5736L58.1889 79.7047C58.4567 79.5414 58.7309 79.3855 59.0155 79.2415C59.2302 79.1338 59.4915 79.2198 59.5992 79.4345C59.6772 79.5905 59.6531 79.7714 59.551 79.8992C59.3532 80.1493 59.1441 80.3857 58.9294 80.6156C58.8683 80.6815 58.7879 80.7185 58.7043 80.729L58.5443 80.7467C57.959 80.8134 57.3745 80.8496 56.7899 80.8689L56.3518 80.8793L56.1331 80.8842L56.0229 80.885L55.8372 80.8721C55.3379 80.8166 54.8627 80.5481 54.5572 80.1509C54.2492 79.7553 54.115 79.2222 54.1906 78.727C54.2123 78.5822 54.2283 78.5292 54.2436 78.4568L54.2911 78.2429L54.3859 77.816L54.7823 76.1099C55.0412 74.9722 55.3524 73.845 55.6386 72.7129C55.9264 71.5808 56.2553 70.4576 56.597 69.3376C56.6637 69.1205 56.8937 68.9983 57.1108 69.0643C57.3045 69.1237 57.4227 69.3143 57.3978 69.5097Z" fill="#E99462"/>
<path fill-rule="evenodd" clip-rule="evenodd" d="M55.9306 86.667L59.0823 86.8881C59.3766 86.913 59.5245 86.9155 59.7207 86.8761C59.9056 86.8391 60.0817 86.7707 60.2377 86.6767C60.3157 86.6284 60.3888 86.5745 60.4564 86.5151L60.7402 86.2674L61.3368 85.7496C61.6729 85.4578 62.1818 85.4939 62.4737 85.8292C62.7655 86.1653 62.7302 86.6751 62.3941 86.9669C62.3675 86.9894 62.3354 87.0135 62.3072 87.0328L61.6463 87.4654L61.3006 87.6913C61.1551 87.7854 61.0015 87.8658 60.8431 87.9325C60.5255 88.0652 60.1878 88.1408 59.8502 88.1577C59.5221 88.1818 59.1442 88.1102 58.9199 88.058L55.8268 87.4131C55.6226 87.3705 55.4924 87.1703 55.5342 86.9669C55.5736 86.7796 55.7448 86.6533 55.9306 86.667Z" fill="#1C417D"/>
<path fill-rule="evenodd" clip-rule="evenodd" d="M48.0064 76.8155H43.7065C42.8784 76.8155 42.207 76.1442 42.207 75.3152C42.207 74.4871 42.8784 73.8149 43.7065 73.8149H48.0064C48.8346 73.8149 49.5067 74.4871 49.5067 75.3152C49.5067 76.1442 48.8346 76.8155 48.0064 76.8155Z" fill="#F0909E"/>
<path fill-rule="evenodd" clip-rule="evenodd" d="M71.068 76.8155H66.7689C65.9399 76.8155 65.2686 76.1442 65.2686 75.3152C65.2686 74.4871 65.9399 73.8149 66.7689 73.8149H71.068C71.8961 73.8149 72.5683 74.4871 72.5683 75.3152C72.5683 76.1442 71.8961 76.8155 71.068 76.8155Z" fill="#F0909E"/>
<path fill-rule="evenodd" clip-rule="evenodd" d="M83.2635 42.0147C67.6952 40.2989 61.7053 6.86694 38.8896 27.0084C38.8896 27.0084 35.2603 26.5574 31.7266 29.6352C26.9443 33.8008 25.8733 44.1606 26.0277 50.4939C26.1419 55.1668 26.7119 60.7218 28.3682 60.7218C31.4058 60.7218 32.4671 65.7743 32.7782 67.8897C32.8554 68.409 33.3073 68.7869 33.8323 68.7668C34.3766 68.7459 34.81 68.3021 34.818 67.757L34.9684 57.1359C34.9684 57.1359 40.3409 50.9883 41.4375 39.7924C41.4842 39.3164 42.1282 39.203 42.3163 39.6428C44.8651 45.5902 54.6066 62.8677 80.3819 58.7648L80.5097 67.7747C80.5169 68.3102 80.9423 68.7459 81.4777 68.766C82.006 68.7861 82.4586 68.3986 82.5157 67.8736C82.7208 65.9994 83.413 61.8643 85.5855 60.8971C86.3871 60.5401 86.9595 59.8125 86.9595 58.9345V52.9204H86.892C90.1813 48.5272 92.2918 43.0101 83.2635 42.0147Z" fill="#0297B8"/>
<path fill-rule="evenodd" clip-rule="evenodd" d="M82.901 50.9599C76.2983 52.404 62.8744 54.0385 53.7134 46.4373C47.0545 40.9105 43.623 36.0606 41.8694 32.7224C41.4666 31.9553 40.2975 32.3324 40.4093 33.1903C40.5098 33.9646 40.6441 34.8072 40.8121 35.6908C40.636 38.1921 39.6399 45.2184 34.0037 45.4709C32.2598 45.5497 30.9814 47.1569 31.1494 48.8944C31.5016 52.5447 31.5988 57.729 29.7319 60.0357C29.4698 58.7075 28.8547 57.5851 27.8593 56.8301C27.426 56.5012 26.9412 56.2681 26.4258 56.1081C26.7731 58.7171 27.3737 60.7215 28.3675 60.7215C28.9327 60.7215 29.4296 60.8968 29.8662 61.1951C31.7741 62.5008 32.5251 66.168 32.7783 67.8894C32.8547 68.4088 33.3074 68.7867 33.8316 68.7666C34.3767 68.7457 34.8101 68.3018 34.8181 67.7567L34.9685 57.1356C34.9685 57.1356 40.3402 50.9881 41.4376 39.7921C41.4843 39.3161 42.1283 39.2028 42.3164 39.6426C42.4499 39.9545 42.6091 40.3051 42.7836 40.6749C45.9659 47.4182 56.1504 62.9535 81.0903 58.6504C82.5769 57.5939 84.1062 56.1402 85.2632 54.1519C86.2095 52.5254 84.7389 50.5579 82.901 50.9599Z" fill="#00547A"/>
</svg>
